<svg width="221" height="232" viewBox="0 0 221 232" fill="none" xmlns="http://www.w3.org/2000/svg">
<circle cx="110.5" cy="121.5" r="110.5" fill="#090913"/>
<path d="M88.1865 138.96C82.3412 138.96 78.1385 137.648 75.5785 135.024C73.0185 132.4 71.6958 128.101 71.6105 122.128C71.4825 114.32 71.3972 106.341 71.3545 98.192C71.3332 90.0427 71.3438 82.0107 71.3865 74.096C71.4292 66.1813 71.5038 58.6827 71.6105 51.6C71.6958 45.584 73.0078 41.2853 75.5465 38.704C78.1065 36.1013 82.2665 34.8 88.0265 34.8C93.7012 34.8 97.8825 36.08 100.571 38.64C103.28 41.1787 104.72 45.4987 104.891 51.6C104.933 52.6667 104.955 54.064 104.955 55.792C104.955 57.4987 104.944 59.3227 104.923 61.264C104.923 63.2053 104.912 65.0613 104.891 66.832C104.891 68.5813 104.869 70.032 104.827 71.184H103.131C103.173 69.7547 103.205 67.76 103.227 65.2C103.248 62.6187 103.259 60.0587 103.259 57.52C103.259 54.96 103.237 52.9973 103.194 51.632C103.024 45.9573 101.712 41.9787 99.2585 39.696C96.8265 37.392 93.0825 36.24 88.0265 36.24C82.7785 36.24 79.0345 37.4347 76.7945 39.824C74.5545 42.192 73.3918 46.128 73.3065 51.632C73.1998 59.44 73.1252 67.2907 73.0825 75.184C73.0398 83.056 73.0398 90.9173 73.0825 98.768C73.1252 106.597 73.1998 114.373 73.3065 122.096C73.3918 127.621 74.5758 131.579 76.8585 133.968C79.1625 136.336 82.9278 137.52 88.1545 137.52C93.4452 137.52 97.3065 136.347 99.7385 134C102.192 131.653 103.515 127.685 103.707 122.096C103.792 118.853 103.835 115.429 103.835 111.824C103.835 108.197 103.76 104.613 103.611 101.072H105.307C105.413 104.187 105.477 107.589 105.499 111.28C105.541 114.949 105.509 118.565 105.403 122.128C105.189 128.165 103.728 132.485 101.019 135.088C98.3305 137.669 94.0532 138.96 88.1865 138.96ZM88.1545 136.112C83.5038 136.112 80.1652 135.045 78.1385 132.912C76.1332 130.757 75.0878 127.12 75.0025 122C74.8958 114.277 74.8212 106.459 74.7785 98.544C74.7358 90.608 74.7358 82.704 74.7785 74.832C74.8212 66.9387 74.8958 59.2053 75.0025 51.632C75.0665 46.5547 76.1118 42.96 78.1385 40.848C80.1652 38.7147 83.4612 37.648 88.0265 37.648C92.6132 37.648 95.9625 38.704 98.0745 40.816C100.187 42.9067 101.328 46.5227 101.499 51.664C101.541 52.5813 101.562 53.904 101.562 55.632C101.562 57.36 101.552 59.216 101.531 61.2C101.531 63.1627 101.52 65.0507 101.499 66.864C101.499 68.656 101.477 70.096 101.435 71.184H99.7385C99.8025 69.264 99.8345 67.0667 99.8345 64.592C99.8558 62.096 99.8558 59.6853 99.8345 57.36C99.8345 55.0133 99.8132 53.1253 99.7705 51.696C99.6638 47.2587 98.7252 44.048 96.9545 42.064C95.1838 40.08 92.2078 39.088 88.0265 39.088C83.9945 39.088 81.1145 40.0373 79.3865 41.936C77.6585 43.8347 76.7625 47.0667 76.6985 51.632C76.5918 59.2907 76.5172 67.056 76.4745 74.928C76.4318 82.7787 76.4318 90.6613 76.4745 98.576C76.5172 106.469 76.5918 114.309 76.6985 122.096C76.7625 126.683 77.6798 129.925 79.4505 131.824C81.2212 133.723 84.1225 134.672 88.1545 134.672C92.2718 134.672 95.2798 133.733 97.1785 131.856C99.0985 129.957 100.133 126.672 100.283 122C100.368 119.845 100.411 117.648 100.411 115.408C100.411 113.147 100.4 110.821 100.379 108.432C100.357 106.043 100.304 103.589 100.219 101.072H101.915C101.979 103.163 102.032 105.392 102.075 107.76C102.117 110.107 102.128 112.507 102.107 114.96C102.107 117.392 102.075 119.76 102.011 122.064C101.84 127.291 100.645 130.939 98.4265 133.008C96.2078 135.077 92.7838 136.112 88.1545 136.112ZM88.1545 133.264C84.6558 133.264 82.1705 132.421 80.6985 130.736C79.2265 129.051 78.4585 126.16 78.3945 122.064C78.2878 114.533 78.2132 106.768 78.1705 98.768C78.1278 90.768 78.1278 82.7787 78.1705 74.8C78.2132 66.8 78.2878 59.0773 78.3945 51.632C78.4585 47.536 79.2158 44.656 80.6665 42.992C82.1172 41.328 84.5705 40.496 88.0265 40.496C91.5252 40.496 94.0532 41.3493 95.6105 43.056C97.1678 44.7627 97.9892 47.6533 98.0745 51.728C98.1172 53.4347 98.1385 55.44 98.1385 57.744C98.1598 60.0267 98.1598 62.352 98.1385 64.72C98.1385 67.088 98.1065 69.2427 98.0425 71.184H96.3465C96.4105 69.2427 96.4425 67.024 96.4425 64.528C96.4638 62.032 96.4638 59.632 96.4425 57.328C96.4425 55.024 96.4212 53.2 96.3785 51.856C96.2932 48.2293 95.6212 45.6693 94.3625 44.176C93.1252 42.6827 91.0132 41.936 88.0265 41.936C85.1252 41.936 83.0878 42.6507 81.9145 44.08C80.7625 45.488 80.1545 48.016 80.0905 51.664C79.9412 59.6427 79.8452 67.5467 79.8025 75.376C79.7598 83.2053 79.7598 91.0027 79.8025 98.768C79.8452 106.512 79.9412 114.267 80.0905 122.032C80.1545 125.659 80.7838 128.197 81.9785 129.648C83.1732 131.099 85.2318 131.824 88.1545 131.824C91.1198 131.824 93.2852 131.109 94.6505 129.68C96.0158 128.251 96.7625 125.637 96.8905 121.84C96.9972 118.939 97.0398 115.6 97.0185 111.824C96.9972 108.048 96.9332 104.464 96.8265 101.072H98.5225C98.6292 104.187 98.6932 107.611 98.7145 111.344C98.7572 115.077 98.7145 118.608 98.5865 121.936C98.4372 126.096 97.5732 129.029 95.9945 130.736C94.4158 132.421 91.8025 133.264 88.1545 133.264ZM124.972 138L113.388 35.6H115.084L126.444 136.56H138.284L149.676 35.6H151.372L139.788 138H124.972ZM127.628 135.152L123.116 90.256L116.78 35.6H118.54L124.716 89.328L129.132 133.712H135.596L140.012 89.328L146.22 35.6H147.948L141.644 90.256L137.132 135.152H127.628ZM130.38 132.304L126.22 88.624L120.364 35.6H122.06L127.756 87.952L131.724 130.864H133.036L137.004 87.952L142.7 35.6H144.364L138.54 88.624L134.38 132.304H130.38Z" fill="#EC2662"/>
<path d="M55.8051 194V163.035H57.2351V192.68H76.3201V194H55.8051ZM92.9894 194.77C88.2227 194.77 84.5927 193.322 82.0994 190.425C79.606 187.492 78.3594 183.55 78.3594 178.6C78.3594 175.337 78.891 172.513 79.9544 170.13C81.0544 167.71 82.686 165.84 84.8494 164.52C87.0127 163.163 89.726 162.485 92.9894 162.485C97.7927 162.485 101.423 163.952 103.879 166.885C106.373 169.782 107.619 173.687 107.619 178.6C107.619 181.79 107.069 184.613 105.969 187.07C104.869 189.49 103.238 191.378 101.074 192.735C98.911 194.092 96.216 194.77 92.9894 194.77ZM92.9894 193.395C97.3527 193.395 100.634 192.057 102.834 189.38C105.071 186.703 106.189 183.11 106.189 178.6C106.189 174.127 105.108 170.552 102.944 167.875C100.781 165.198 97.4627 163.86 92.9894 163.86C88.6627 163.86 85.381 165.143 83.1444 167.71C80.9077 170.277 79.7894 173.907 79.7894 178.6C79.7894 183.073 80.871 186.667 83.0344 189.38C85.2344 192.057 88.5527 193.395 92.9894 193.395ZM113.542 194V163.035H122.562C125.165 163.035 127.347 163.292 129.107 163.805C130.867 164.282 132.205 165.143 133.122 166.39C134.038 167.6 134.497 169.342 134.497 171.615C134.497 172.898 134.24 174.145 133.727 175.355C133.213 176.528 132.407 177.5 131.307 178.27C130.207 179.003 128.777 179.37 127.017 179.37C128.557 179.37 129.748 179.663 130.592 180.25C131.472 180.8 132.095 181.533 132.462 182.45C132.828 183.367 133.048 184.357 133.122 185.42C133.195 186.483 133.213 187.528 133.177 188.555C133.177 189.582 133.213 190.498 133.287 191.305C133.36 192.075 133.58 192.643 133.947 193.01C134.313 193.34 134.937 193.358 135.817 193.065V194.44C135.817 194.44 135.615 194.458 135.212 194.495C134.845 194.568 134.387 194.532 133.837 194.385C133.323 194.275 132.865 193.945 132.462 193.395C132.095 192.845 131.912 191.965 131.912 190.755C131.912 188.335 131.82 186.41 131.637 184.98C131.453 183.55 131.068 182.487 130.482 181.79C129.895 181.093 128.978 180.635 127.732 180.415C126.522 180.158 124.89 180.048 122.837 180.085C120.783 180.085 118.18 180.085 115.027 180.085V194H113.542ZM115.027 178.71H123.937C127.053 178.71 129.363 178.197 130.867 177.17C132.37 176.107 133.122 174.255 133.122 171.615C133.122 169.525 132.7 167.985 131.857 166.995C131.05 165.968 129.858 165.29 128.282 164.96C126.742 164.63 124.835 164.465 122.562 164.465H115.027V178.71ZM167.376 178.49C167.376 182.56 166.625 185.732 165.121 188.005C163.618 190.242 161.528 191.8 158.851 192.68C156.175 193.56 153.04 194 149.446 194H141.581V163.035H149.446C153.04 163.035 156.175 163.622 158.851 164.795C161.528 165.932 163.618 167.637 165.121 169.91C166.625 172.183 167.376 175.043 167.376 178.49ZM143.066 192.625H149.446C151.903 192.625 154.14 192.442 156.156 192.075C158.173 191.672 159.896 190.957 161.326 189.93C162.793 188.903 163.911 187.473 164.681 185.64C165.451 183.77 165.836 181.387 165.836 178.49C165.836 175.263 165.158 172.623 163.801 170.57C162.445 168.48 160.538 166.94 158.081 165.95C155.625 164.923 152.746 164.41 149.446 164.41H143.066V192.625Z" fill="#EC2662"/>
<line x1="189" y1="147.5" x2="31" y2="147.5" stroke="#EC2662"/>
</svg>
